<svg xmlns="http://www.w3.org/2000/svg" width="75" height="74" viewBox="0 0 75 74"><defs><clipPath id="86zza"><path fill="#fff" d="M37.5 0C58.21 0 75 16.375 75 36.574c0 20.2-16.79 36.574-37.5 36.574S0 56.774 0 36.574C0 16.375 16.79 0 37.5 0z"/></clipPath></defs><g><g><path fill="#1c242a" d="M37.5 0C58.21 0 75 16.375 75 36.574c0 20.2-16.79 36.574-37.5 36.574S0 56.774 0 36.574C0 16.375 16.79 0 37.5 0z"/><path fill="none" stroke="#d7c4a1" stroke-linecap="round" stroke-linejoin="round" stroke-miterlimit="20" stroke-width="6" d="M37.5 0C58.21 0 75 16.375 75 36.574c0 20.2-16.79 36.574-37.5 36.574S0 56.774 0 36.574C0 16.375 16.79 0 37.5 0z" clip-path="url(&quot;#86zza&quot;)"/></g></g></svg>